<?xml version="1.0" standalone="no"?>
<!DOCTYPE svg PUBLIC "-//W3C//DTD SVG 20010904//EN"
 "http://www.w3.org/TR/2001/REC-SVG-20010904/DTD/svg10.dtd">
<svg version="1.0" xmlns="http://www.w3.org/2000/svg"
 width="300.000000pt" height="226.000000pt" viewBox="0 0 300.000000 226.000000"
 preserveAspectRatio="xMidYMid meet">
<metadata>
Created by potrace 1.10, written by Peter Selinger 2001-2011
</metadata>
<g transform="translate(0.000000,226.000000) scale(0.100000,-0.100000)"
fill="#000000" stroke="none">
<path d="M1841 1468 c-57 -29 -82 -64 -88 -121 -7 -59 11 -110 52 -145 99 -88
249 -14 249 123 0 120 -112 195 -213 143z m121 -25 c34 -20 68 -79 68 -118 0
-39 -34 -98 -68 -117 -51 -30 -95 -24 -142 20 -36 35 -40 44 -40 88 0 108 97
176 182 127z"/>
<path d="M1009 1457 c-125 -83 -68 -287 80 -287 154 0 211 209 79 290 -46 28
-115 26 -159 -3z m166 -21 c59 -45 70 -133 24 -197 -46 -65 -126 -76 -191 -26
-78 59 -64 196 25 241 43 22 99 15 142 -18z"/>
<path d="M1419 1457 c-39 -26 -79 -97 -79 -142 0 -54 40 -117 90 -142 24 -13
56 -23 70 -23 14 0 46 10 70 23 60 30 93 91 87 160 -10 118 -143 188 -238 124z
m161 -15 c39 -28 71 -100 64 -142 -20 -114 -131 -169 -219 -109 -45 32 -65 69
-65 124 0 66 30 116 85 141 37 17 100 10 135 -14z"/>
<path d="M995 1119 c-80 -12 -132 -49 -167 -119 -16 -30 -31 -75 -34 -100 l-6
-45 70 -18 c82 -21 213 -82 258 -120 18 -15 33 -27 35 -27 2 0 5 39 5 88 l1
87 -11 -67 -11 -67 -70 36 c-38 20 -110 51 -160 68 -103 37 -108 45 -78 128
22 64 75 118 129 135 80 24 294 11 294 -18 0 -4 -6 -13 -14 -19 -8 -6 -16 -21
-19 -33 -4 -15 4 -10 30 18 19 22 35 41 35 44 -2 23 -196 42 -287 29z"/>
<path d="M1771 1115 c-30 -9 -57 -18 -60 -20 -2 -3 9 -20 27 -38 60 -62 102
-193 102 -320 l0 -49 33 22 c55 37 209 108 273 126 l61 16 -9 49 c-18 100 -61
165 -132 201 -55 28 -215 35 -295 13z m275 -34 c49 -22 97 -78 113 -130 21
-72 18 -76 -66 -106 -43 -15 -109 -42 -147 -61 -38 -19 -71 -32 -73 -31 -1 2
-10 44 -18 93 -10 55 -28 114 -48 154 -17 36 -32 69 -32 75 0 15 45 23 140 24
67 0 100 -4 131 -18z"/>
<path d="M1400 1101 c-99 -30 -167 -112 -188 -227 l-9 -51 46 -12 c61 -16 138
-62 199 -117 l50 -44 69 51 c59 45 146 93 206 113 11 3 17 15 16 33 0 27 -1
27 -9 6 -6 -14 -31 -33 -67 -48 -59 -26 -114 -60 -166 -102 -16 -13 -35 -23
-42 -23 -8 0 -47 25 -87 55 -40 31 -99 65 -131 77 -33 12 -61 27 -64 34 -10
26 27 120 63 162 46 54 97 80 173 88 119 11 219 -26 269 -100 32 -48 42 -54
21 -13 -24 48 -84 98 -133 112 -52 16 -173 19 -216 6z"/>
<path d="M1184 964 c-8 -19 -16 -47 -18 -62 -2 -15 -1 -20 1 -12 3 8 14 36 24
63 22 54 15 65 -7 11z"/>
</g>
</svg>
